<svg width="16" height="16" viewBox="0 0 16 16" fill="none" xmlns="http://www.w3.org/2000/svg">
<g clip-path="url(#clip0_5_5747)">
<path d="M8.00014 0.959961C7.29389 0.959961 6.72014 1.53371 6.72014 2.23996C6.72014 2.83496 7.13014 3.33121 7.68014 3.47496V4.47996H4.81014C3.39264 4.47996 2.24014 5.63246 2.24014 7.04996V8.31996H0.640137V12.16H2.24014V15.04H13.7601V12.16H15.3601V8.31996H13.7601V7.04996C13.7601 5.63246 12.6076 4.47996 11.1901 4.47996H8.32014V3.47496C8.87139 3.33121 9.28014 2.83496 9.28014 2.23996C9.28014 1.53371 8.70639 0.959961 8.00014 0.959961ZM8.00014 1.59996C8.35264 1.59996 8.64014 1.88746 8.64014 2.23996C8.64014 2.59246 8.35264 2.87996 8.00014 2.87996C7.64764 2.87996 7.36014 2.59246 7.36014 2.23996C7.36014 1.88746 7.64764 1.59996 8.00014 1.59996ZM4.81014 5.11996H11.1901C12.2539 5.11996 13.1201 5.98621 13.1201 7.04996V14.4H11.2001V11.84H4.80014V14.4H2.88014V7.04996C2.88014 5.98621 3.74639 5.11996 4.81014 5.11996ZM5.92014 7.03996C5.12639 7.03996 4.48014 7.68621 4.48014 8.47996C4.48014 9.27371 5.12639 9.91996 5.92014 9.91996C6.71389 9.91996 7.36014 9.27371 7.36014 8.47996C7.36014 7.68621 6.71389 7.03996 5.92014 7.03996ZM10.0801 7.03996C9.28639 7.03996 8.64014 7.68621 8.64014 8.47996C8.64014 9.27371 9.28639 9.91996 10.0801 9.91996C10.8739 9.91996 11.5201 9.27371 11.5201 8.47996C11.5201 7.68621 10.8739 7.03996 10.0801 7.03996ZM5.92014 7.67996C6.36139 7.67996 6.72014 8.03871 6.72014 8.47996C6.72014 8.92121 6.36139 9.27996 5.92014 9.27996C5.47889 9.27996 5.12014 8.92121 5.12014 8.47996C5.12014 8.03871 5.47889 7.67996 5.92014 7.67996ZM10.0801 7.67996C10.5214 7.67996 10.8801 8.03871 10.8801 8.47996C10.8801 8.92121 10.5214 9.27996 10.0801 9.27996C9.63889 9.27996 9.28014 8.92121 9.28014 8.47996C9.28014 8.03871 9.63889 7.67996 10.0801 7.67996ZM1.28014 8.95996H2.24014V11.52H1.28014V8.95996ZM13.7601 8.95996H14.7201V11.52H13.7601V8.95996ZM5.44014 12.48H6.72014V14.4H5.44014V12.48ZM7.36014 12.48H8.64014V14.4H7.36014V12.48ZM9.28014 12.48H10.5601V14.4H9.28014V12.48Z" fill="#6c4cc8"/>
</g>
<defs>
<clipPath id="clip0_5_5747">
<rect width="16" height="16" fill="white"/>
</clipPath>
</defs>
</svg>
