<svg width="10" height="10" viewBox="0 0 10 10" fill="none" xmlns="http://www.w3.org/2000/svg">
<g clip-path="url(#clip0_5_5741)">
<path d="M6.72297 5.5C7.56616 4.96216 8.125 4.04324 8.125 3C8.125 1.34595 6.72297 0 5 0C3.27703 0 1.875 1.34595 1.875 3C1.875 4.04324 2.43243 4.96216 3.27703 5.5C1.36684 6.17703 0 7.93513 0 10H0.833333C0.833333 7.79459 2.7027 6 5 6C7.2973 6 9.16667 7.79459 9.16667 10H10C10 7.93513 8.63316 6.17568 6.72297 5.5ZM5 5.2C3.73592 5.2 2.70833 4.21351 2.70833 3C2.70833 1.78649 3.73592 0.8 5 0.8C6.26408 0.8 7.29167 1.78649 7.29167 3C7.29167 4.21351 6.26408 5.2 5 5.2Z" fill="#6c4cc8"/>
</g>
<defs>
<clipPath id="clip0_5_5741">
<rect width="10" height="10" fill="white"/>
</clipPath>
</defs>
</svg>
