<svg style="margin: auto" width="150" height="70" viewBox="0 0 242 123" fill="none" xmlns="http://www.w3.org/2000/svg">
        <path
            d="M31.9639 48.2494L20.8422 69.836V79.25H11.1217V69.836L0 48.2494H11.1217L16.0695 59.2397L21.0174 48.2494H31.9639ZM39.3906 52.5842C37.6975 52.5842 36.3401 52.1317 35.3185 51.2268C34.2968 50.3219 33.7859 49.1835 33.7859 47.8115C33.7859 46.4104 34.2968 45.2573 35.3185 44.3524C36.3401 43.4183 37.6975 42.9512 39.3906 42.9512C41.0544 42.9512 42.3972 43.4183 43.4189 44.3524C44.4406 45.2573 44.9514 46.4104 44.9514 47.8115C44.9514 49.1835 44.4406 50.3219 43.4189 51.2268C42.3972 52.1317 41.0544 52.5842 39.3906 52.5842ZM44.2071 54.5546V79.25H34.4865V54.5546H44.2071ZM72.8173 66.6834C72.8173 67.3547 72.7735 67.9969 72.686 68.61H57.0543C57.2002 70.7409 58.0906 71.8063 59.7253 71.8063C60.7761 71.8063 61.5351 71.3247 62.0021 70.3614H72.2919C71.9416 72.1128 71.1972 73.6892 70.0588 75.0903C68.9495 76.4623 67.5338 77.5569 65.8115 78.3743C64.1185 79.1624 62.2503 79.5565 60.2069 79.5565C57.7549 79.5565 55.5656 79.0457 53.639 78.024C51.7416 77.0023 50.2528 75.5428 49.1728 73.6454C48.1219 71.7188 47.5965 69.4711 47.5965 66.9023C47.5965 64.3335 48.1219 62.1004 49.1728 60.203C50.2528 58.2764 51.7416 56.8023 53.639 55.7806C55.5656 54.7589 57.7549 54.2481 60.2069 54.2481C62.6589 54.2481 64.8336 54.7589 66.731 55.7806C68.6576 56.7731 70.1464 58.2034 71.1972 60.0716C72.2773 61.9399 72.8173 64.1438 72.8173 66.6834ZM62.9654 64.3627C62.9654 63.5453 62.7027 62.9323 62.1773 62.5237C61.6518 62.0858 60.9951 61.8669 60.2069 61.8669C58.4846 61.8669 57.4776 62.6988 57.1857 64.3627H62.9654ZM85.9249 46.8482V79.25H76.2044V46.8482H85.9249ZM89.3143 66.9023C89.3143 64.3043 89.7522 62.0566 90.6279 60.1592C91.5328 58.2326 92.7588 56.7731 94.3059 55.7806C95.8531 54.7589 97.5899 54.2481 99.5165 54.2481C101.122 54.2481 102.494 54.5838 103.632 55.2552C104.8 55.8974 105.69 56.7877 106.303 57.9261V46.8482H116.024V79.25H106.303V75.8785C105.69 77.0169 104.8 77.9218 103.632 78.5932C102.494 79.2354 101.122 79.5565 99.5165 79.5565C97.5899 79.5565 95.8531 79.0603 94.3059 78.0678C92.7588 77.0461 91.5328 75.5866 90.6279 73.6892C89.7522 71.7626 89.3143 69.5003 89.3143 66.9023ZM106.347 66.9023C106.347 65.5887 106.011 64.567 105.34 63.8373C104.669 63.1075 103.808 62.7426 102.757 62.7426C101.706 62.7426 100.845 63.1075 100.173 63.8373C99.5019 64.567 99.1662 65.5887 99.1662 66.9023C99.1662 68.2159 99.5019 69.2376 100.173 69.9673C100.845 70.6971 101.706 71.062 102.757 71.062C103.808 71.062 104.669 70.6971 105.34 69.9673C106.011 69.2376 106.347 68.2159 106.347 66.9023Z"
            fill="#6A2C93" />
        <path
            d="M146.054 58.8894C146.054 60.8452 145.601 62.6258 144.696 64.2313C143.792 65.8076 142.449 67.0628 140.668 67.9969C138.917 68.9311 136.786 69.3981 134.275 69.3981H130.422V79.25H120.702V48.2494H134.275C138.07 48.2494 140.975 49.2127 142.989 51.1393C145.032 53.0659 146.054 55.6492 146.054 58.8894ZM133.181 61.7355C135.195 61.7355 136.202 60.7868 136.202 58.8894C136.202 56.992 135.195 56.0433 133.181 56.0433H130.422V61.7355H133.181ZM159.17 59.1083C160.163 57.678 161.374 56.5396 162.805 55.693C164.235 54.8173 165.724 54.3794 167.271 54.3794V64.7568H164.512C162.673 64.7568 161.316 65.0779 160.44 65.7201C159.594 66.3623 159.17 67.5007 159.17 69.1354V79.25H149.45V54.5546H159.17V59.1083ZM181.936 79.5565C179.455 79.5565 177.222 79.0457 175.237 78.024C173.252 77.0023 171.69 75.5428 170.552 73.6454C169.443 71.7188 168.888 69.4711 168.888 66.9023C168.888 64.3335 169.443 62.1004 170.552 60.203C171.69 58.2764 173.252 56.8023 175.237 55.7806C177.222 54.7589 179.455 54.2481 181.936 54.2481C184.418 54.2481 186.651 54.7589 188.636 55.7806C190.621 56.8023 192.168 58.2764 193.277 60.203C194.416 62.1004 194.985 64.3335 194.985 66.9023C194.985 69.4711 194.416 71.7188 193.277 73.6454C192.168 75.5428 190.621 77.0023 188.636 78.024C186.651 79.0457 184.418 79.5565 181.936 79.5565ZM181.936 71.1496C182.841 71.1496 183.6 70.7993 184.213 70.0987C184.826 69.3689 185.133 68.3035 185.133 66.9023C185.133 65.5011 184.826 64.4503 184.213 63.7497C183.6 63.0199 182.841 62.655 181.936 62.655C181.032 62.655 180.273 63.0199 179.66 63.7497C179.047 64.4503 178.74 65.5011 178.74 66.9023C178.74 68.3035 179.032 69.3689 179.616 70.0987C180.229 70.7993 181.002 71.1496 181.936 71.1496Z"
            fill="#CC0FDA" />
        <path d="M114.239 38.4545V3L238 61.6523L114.239 120L114.402 86.7699" stroke="url(#paint0_linear_433_11117)" stroke-width="3.12759" stroke-linecap="round" />
        <defs>
            <linearGradient id="paint0_linear_433_11117" x1="176.119" y1="3" x2="176.119" y2="120" gradientUnits="userSpaceOnUse">
                <stop stop-color="#4E087D" />
                <stop offset="0.390625" stop-color="#7317B0" stop-opacity="0.871094" />
                <stop offset="0.484375" stop-color="#7B1ABC" stop-opacity="0.840156" />
                <stop offset="1" stop-color="#F937C2" stop-opacity="0.62" />
            </linearGradient>
        </defs>
    </svg>